# xmcd CD database file generated by Grip 2.96
# 
# Track frame offsets:
#       150
#       13215
#       32837
#       49797
#       62882
#       77650
#       98575
#       112822
# 
# Disc length: 1733 seconds
# 
# Revision: 0
# Processed by: cddbd v1.4PL0 Copyright (c) Steve Scherf et al.
# Submitted via: Grip 2.96
# 
DISCID=5c06c308
DTITLE=Various Artist - Hot Country Hits(Promo disc)
DYEAR=1900
DGENRE=
TTITLE0=Jason McCoy - Doin' it Right
TTITLE1=Trisha Yearwood - Walkaway Joe
TTITLE2=Lee Ann Womack - Never again, Again
TTITLE3=David Lee Murphy - All Lit Up in Love
TTITLE4=Matraca Berg - That Train Don't Run
TTITLE5=Farmer's Daughter - Ode To Billie Joe
TTITLE6=Raybon Brothers - The Way She's Lookin'
TTITLE7=Chely Wright - Emma Jean's guitar
EXTD=
EXTT0=
EXTT1=
EXTT2=
EXTT3=
EXTT4=
EXTT5=
EXTT6=
EXTT7=
PLAYORDER=
